<svg xmlns="http://www.w3.org/2000/svg" xmlns:xlink="http://www.w3.org/1999/xlink" width="94" height="28" viewBox="0 0 94 28">
  <defs>
    <clipPath id="clip-path">
      <rect id="range" width="94" height="28" transform="translate(2)" fill="#edeae5"/>
    </clipPath>
  </defs>
  <g id="logo_white_xs" transform="translate(-2.2)">
    <g id="Logo" transform="translate(0.2)" clip-path="url(#clip-path)">
      <g id="组_47" data-name="组 47" transform="translate(1.533 2)">
        <path id="路径_34" data-name="路径 34" d="M187.065,38.72a4.735,4.735,0,0,0-3.357-1.45c-.669-.093-1.343-.134-2.014-.216-.479-.058-1.778-.029-1.787-.9-.014-1.258,3.56-1.179,5.727.085l2.051-2.479a9.679,9.679,0,0,0-5.513-1.688c-1.116,0-5.246,0-5.32,4.358-.041,2.369,1.6,3.051,3.221,3.366.914.177,1.723.244,2.648.339.663.068,2.187.26,1.946,1.314-.221.966-3.642,1.444-6.426-.424l-2.115,2.65a9.891,9.891,0,0,0,6.053,1.774c3.266,0,4.484-1.344,4.908-1.987a4.33,4.33,0,0,0-.021-4.744" transform="translate(-127.183 -23.094)" fill="#edeae5"/>
        <path id="路径_35" data-name="路径 35" d="M89.085,34.662a4.3,4.3,0,0,0-1.924-1.923,7.279,7.279,0,0,0-6.068,0,4.4,4.4,0,0,0-1.924,1.923,6.538,6.538,0,0,0-.641,3.012V39.79a6.663,6.663,0,0,0,.641,3.056,4.57,4.57,0,0,0,1.924,1.945,7.284,7.284,0,0,0,6.068,0,4.521,4.521,0,0,0,1.924-1.923,6.626,6.626,0,0,0,.662-3.034V37.674a6.533,6.533,0,0,0-.662-3.012m-2.778,5.171a2.4,2.4,0,0,1-.577,1.709,2.094,2.094,0,0,1-1.6.6,2.034,2.034,0,0,1-1.6-.6,2.4,2.4,0,0,1-.577-1.709V37.674a2.343,2.343,0,0,1,.577-1.688,2.445,2.445,0,0,1,3.2,0,2.344,2.344,0,0,1,.577,1.688Z" transform="translate(-56.914 -23.095)" fill="#edeae5"/>
        <path id="路径_36" data-name="路径 36" d="M237.208,34.662a4.3,4.3,0,0,0-1.923-1.923,7.28,7.28,0,0,0-6.068,0,4.4,4.4,0,0,0-1.923,1.923,6.534,6.534,0,0,0-.641,3.012V39.79a6.659,6.659,0,0,0,.641,3.056,4.568,4.568,0,0,0,1.923,1.945,7.285,7.285,0,0,0,6.068,0,4.52,4.52,0,0,0,1.923-1.923,6.626,6.626,0,0,0,.662-3.034V37.674a6.533,6.533,0,0,0-.662-3.012m-2.778,5.171a2.4,2.4,0,0,1-.577,1.709,2.1,2.1,0,0,1-1.6.6,2.034,2.034,0,0,1-1.6-.6,2.4,2.4,0,0,1-.577-1.709V37.674a2.344,2.344,0,0,1,.577-1.688,2.445,2.445,0,0,1,3.205,0,2.345,2.345,0,0,1,.577,1.688Z" transform="translate(-163.563 -23.095)" fill="#edeae5"/>
        <path id="路径_37" data-name="路径 37" d="M136.221,32.634V40.2a2.492,2.492,0,0,1-.556,1.709,2.277,2.277,0,0,1-3.077,0,2.485,2.485,0,0,1-.534-1.709V32.634h-3.419v7.521a6.665,6.665,0,0,0,.62,3.056,4.592,4.592,0,0,0,1.88,1.944,4.335,4.335,0,0,0,.919.363,7.4,7.4,0,0,0,4.167,0,3.977,3.977,0,0,0,.876-.363,4.417,4.417,0,0,0,1.88-1.923,6.627,6.627,0,0,0,.662-3.034V32.634Z" transform="translate(-92.991 -23.496)" fill="#edeae5"/>
        <path id="路径_38" data-name="路径 38" d="M284.285,38.105v6.111a2.492,2.492,0,0,1-.556,1.709,2.277,2.277,0,0,1-3.077,0,2.485,2.485,0,0,1-.534-1.709V38.105H276.7v6.068a6.665,6.665,0,0,0,.62,3.056,4.591,4.591,0,0,0,1.88,1.944,4.323,4.323,0,0,0,.919.363,7.4,7.4,0,0,0,4.167,0,3.965,3.965,0,0,0,.876-.363,4.416,4.416,0,0,0,1.88-1.923,6.625,6.625,0,0,0,.663-3.034V38.105Z" transform="translate(-199.597 -27.436)" fill="#edeae5"/>
        <path id="路径_39" data-name="路径 39" d="M304.026,20.506a1.754,1.754,0,0,0-2.466,0,1.731,1.731,0,0,0-.506,1.233,1.739,1.739,0,1,0,3.478,0,1.731,1.731,0,0,0-.506-1.233" transform="translate(-217.132 -14.4)" fill="#edeae5"/>
        <path id="路径_40" data-name="路径 40" d="M282.194,20.506A1.694,1.694,0,0,0,280.961,20a1.729,1.729,0,0,0-1.739,1.739,1.744,1.744,0,0,0,2.972,1.233,1.613,1.613,0,0,0,.506-1.233,1.645,1.645,0,0,0-.506-1.233" transform="translate(-201.413 -14.4)" fill="#edeae5"/>
        <path id="路径_41" data-name="路径 41" d="M38.94,38.72a4.735,4.735,0,0,0-3.357-1.45c-.669-.093-1.343-.134-2.013-.216-.479-.058-1.778-.029-1.788-.9-.014-1.258,3.56-1.179,5.727.085l2.051-2.479a9.679,9.679,0,0,0-5.513-1.688c-1.116,0-5.246,0-5.32,4.358-.041,2.369,1.6,3.051,3.221,3.366.914.177,1.723.244,2.648.339.663.068,2.187.26,1.946,1.314-.221.966-3.642,1.444-6.426-.424L28,43.678a9.891,9.891,0,0,0,6.053,1.774c3.266,0,4.484-1.344,4.908-1.987a4.33,4.33,0,0,0-.021-4.744" transform="translate(-20.533 -23.094)" fill="#edeae5"/>
      </g>
    </g>
  </g>
</svg>
