<svg xmlns="http://www.w3.org/2000/svg" xmlns:xlink="http://www.w3.org/1999/xlink" width="60" height="206" viewBox="0 0 60 206">
  <defs>
    <clipPath id="clip-path">
      <rect id="range" width="206" height="60" transform="translate(0.2)" fill="none"/>
    </clipPath>
  </defs>
  <g id="Logo" transform="translate(60 -0.2) rotate(90)" clip-path="url(#clip-path)">
    <path id="路径_34" data-name="路径 34" d="M199.568,46.315c-2.152-2.438-4.549-2.738-7.194-3.106-1.433-.2-2.879-.288-4.315-.462-1.025-.124-3.81-.062-3.83-1.926-.029-2.7,7.629-2.526,12.271.183l4.4-5.311a20.74,20.74,0,0,0-11.813-3.617c-2.392,0-11.242,0-11.4,9.339-.087,5.075,3.421,6.538,6.9,7.213,1.958.38,3.692.523,5.674.727,1.421.146,4.686.557,4.169,2.816-.473,2.07-7.8,3.094-13.769-.909l-4.533,5.678c2.068,1.557,6.241,3.8,12.971,3.8,7,0,9.61-2.881,10.517-4.259,2.383-3.62,1.54-8.369-.046-10.165" transform="translate(-71.05 -12.83)" fill="#13545a"/>
    <path id="路径_35" data-name="路径 35" d="M101.148,37.617A9.207,9.207,0,0,0,97.026,33.5a15.6,15.6,0,0,0-13,0A9.435,9.435,0,0,0,79.9,37.617a14.01,14.01,0,0,0-1.373,6.455v4.534A14.278,14.278,0,0,0,79.9,55.153a9.794,9.794,0,0,0,4.122,4.167,15.609,15.609,0,0,0,13,0,9.687,9.687,0,0,0,4.122-4.121,14.2,14.2,0,0,0,1.418-6.5V44.072a14,14,0,0,0-1.418-6.455M95.2,48.7a5.14,5.14,0,0,1-1.237,3.663,4.488,4.488,0,0,1-3.434,1.282,4.359,4.359,0,0,1-3.434-1.282A5.139,5.139,0,0,1,85.855,48.7V44.072a5.022,5.022,0,0,1,1.236-3.616,5.239,5.239,0,0,1,6.868,0A5.022,5.022,0,0,1,95.2,44.072Z" transform="translate(-32.012 -12.83)" fill="#13545a"/>
    <path id="路径_36" data-name="路径 36" d="M249.272,37.617a9.2,9.2,0,0,0-4.121-4.121,15.6,15.6,0,0,0-13,0,9.429,9.429,0,0,0-4.121,4.121,14,14,0,0,0-1.373,6.455v4.534a14.27,14.27,0,0,0,1.373,6.548,9.788,9.788,0,0,0,4.121,4.167,15.611,15.611,0,0,0,13,0,9.684,9.684,0,0,0,4.121-4.121,14.2,14.2,0,0,0,1.42-6.5V44.072a14,14,0,0,0-1.42-6.455M243.319,48.7a5.142,5.142,0,0,1-1.236,3.663,4.49,4.49,0,0,1-3.434,1.282,4.358,4.358,0,0,1-3.434-1.282,5.14,5.14,0,0,1-1.237-3.663V44.072a5.022,5.022,0,0,1,1.237-3.616,5.24,5.24,0,0,1,6.868,0,5.024,5.024,0,0,1,1.236,3.616Z" transform="translate(-91.261 -12.83)" fill="#13545a"/>
    <path id="路径_37" data-name="路径 37" d="M144.891,32.634V48.842a5.339,5.339,0,0,1-1.19,3.663,4.879,4.879,0,0,1-6.593,0,5.325,5.325,0,0,1-1.145-3.663V32.634h-7.326V48.751a14.282,14.282,0,0,0,1.328,6.548,9.84,9.84,0,0,0,4.03,4.166,9.289,9.289,0,0,0,1.969.778,15.857,15.857,0,0,0,8.929,0,8.524,8.524,0,0,0,1.877-.778,9.466,9.466,0,0,0,4.029-4.121,14.2,14.2,0,0,0,1.42-6.5V32.634Z" transform="translate(-52.054 -13.054)" fill="#13545a"/>
    <path id="路径_38" data-name="路径 38" d="M292.954,38.1V51.2a5.339,5.339,0,0,1-1.19,3.663,4.879,4.879,0,0,1-6.593,0,5.325,5.325,0,0,1-1.145-3.663V38.1H276.7v13a14.281,14.281,0,0,0,1.328,6.548,9.837,9.837,0,0,0,4.03,4.166,9.258,9.258,0,0,0,1.969.778,15.857,15.857,0,0,0,8.929,0,8.5,8.5,0,0,0,1.877-.778A9.463,9.463,0,0,0,298.86,57.7a14.2,14.2,0,0,0,1.42-6.5V38.1Z" transform="translate(-111.28 -15.242)" fill="#13545a"/>
    <path id="路径_39" data-name="路径 39" d="M307.422,21.085a3.759,3.759,0,0,0-5.284,0,3.711,3.711,0,0,0-1.085,2.642,3.727,3.727,0,1,0,7.454,0,3.709,3.709,0,0,0-1.085-2.642" transform="translate(-121.022 -8)" fill="#13545a"/>
    <path id="路径_40" data-name="路径 40" d="M285.591,21.085A3.63,3.63,0,0,0,282.949,20a3.705,3.705,0,0,0-3.727,3.727,3.737,3.737,0,0,0,6.369,2.642,3.455,3.455,0,0,0,1.085-2.642,3.525,3.525,0,0,0-1.085-2.642" transform="translate(-112.289 -8)" fill="#f57c2c"/>
    <path id="路径_41" data-name="路径 41" d="M51.443,46.315c-2.152-2.438-4.549-2.738-7.194-3.106-1.433-.2-2.879-.288-4.315-.462-1.025-.124-3.81-.062-3.83-1.926-.029-2.7,7.629-2.526,12.271.183l4.4-5.311a20.74,20.74,0,0,0-11.813-3.617c-2.392,0-11.242,0-11.4,9.339-.087,5.075,3.421,6.538,6.9,7.213,1.958.38,3.692.523,5.674.727,1.421.146,4.686.557,4.169,2.816-.473,2.07-7.8,3.094-13.769-.909L28,56.938c2.068,1.557,6.241,3.8,12.971,3.8,7,0,9.61-2.881,10.517-4.259,2.383-3.62,1.54-8.369-.046-10.165" transform="translate(-11.8 -12.83)" fill="#13545a"/>
  </g>
</svg>
