<?xml version="1.0" encoding="utf-8"?>
<!-- Generator: Adobe Illustrator 26.0.1, SVG Export Plug-In . SVG Version: 6.00 Build 0)  -->
<svg version="1.1" id="圖層_1" xmlns="http://www.w3.org/2000/svg" xmlns:xlink="http://www.w3.org/1999/xlink" x="0px" y="0px"
	 viewBox="0 0 512 512" style="enable-background:new 0 0 512 512;" xml:space="preserve">
<path d="M432,230.8V136c-0.1-30.8-25.2-55.9-56-56H136c-30.8,0.1-55.9,25.2-56,56v94.8c-28.1,12.4-47.9,40.6-48,73.2v104v8
	c0,8.8,7.2,16,16,16s16-7.2,16-16v-8c0-4.4,3.6-8,8-8h368c4.4,0,8,3.6,8,8v8c0,8.8,7.2,16,16,16s16-7.2,16-16v-8V304
	C479.9,271.4,460.1,243.2,432,230.8z M128,224c0-8.8,7.2-16,16-16h80c8.8,0,16,7.2,16,16H128z M272,224c0-8.8,7.2-16,16-16h80
	c8.8,0,16,7.2,16,16H272z M136,112h240c13.2,0,24,10.8,24,24v52.3c-8.5-7.6-19.7-12.3-32-12.3h-80c-12.3,0-23.5,4.7-32,12.3
	c-8.5-7.6-19.7-12.3-32-12.3h-80c-12.3,0-23.5,4.7-32,12.3V136C112,122.8,122.8,112,136,112z M440,368H72c-2.7,0-5.4,0.3-8,0.8V304
	c0.1-26.4,21.6-48,48-48h288c26.4,0.1,48,21.6,48,48v64.8C445.4,368.3,442.7,368,440,368z"/>
</svg>

