<?xml version="1.0" encoding="utf-8"?>
<!-- Generator: Adobe Illustrator 26.0.0, SVG Export Plug-In . SVG Version: 6.00 Build 0)  -->
<svg version="1.1" id="圖層_1" xmlns="http://www.w3.org/2000/svg" xmlns:xlink="http://www.w3.org/1999/xlink" x="0px" y="0px"
	 viewBox="0 0 512 512" style="enable-background:new 0 0 512 512;" xml:space="preserve">
<path d="M352,32H160c-35.3,0-64,28.7-64,64v368c0,6.3,3.7,12,9.4,14.6c5.7,2.6,12.5,1.5,17.2-2.6L256,357.4L389.4,476
	c3,2.7,6.8,4,10.6,4c2.2,0,4.5-0.5,6.6-1.4c5.7-2.6,9.4-8.3,9.4-14.6V96C416,60.7,387.3,32,352,32z M384,428.4L266.6,324
	c-3-2.7-6.8-4-10.6-4c-3.8,0-7.6,1.3-10.6,4L128,428.4V96c0-17.6,14.4-32,32-32h192c17.6,0,32,14.4,32,32V428.4z"/>
</svg>
