<?xml version="1.0" encoding="utf-8"?>
<!-- Generator: Adobe Illustrator 26.0.1, SVG Export Plug-In . SVG Version: 6.00 Build 0)  -->
<svg version="1.1" id="圖層_1" xmlns="http://www.w3.org/2000/svg" xmlns:xlink="http://www.w3.org/1999/xlink" x="0px" y="0px"
	 viewBox="0 0 512 512" style="enable-background:new 0 0 512 512;" xml:space="preserve">
<g>
	<path d="M369.4,62.7C339.4,32.6,299.1,16,256,16c-0.2,0-0.3,0-0.5,0c-42.5,0-82.4,16.5-112.5,46.4C112.8,92.5,96.1,132.5,96,175.1
		v0.9c0,46.6,17.9,90.2,49,119.6c1.4,1.3,2.9,2.7,4.4,4.1c18,16.8,42.6,39.9,42.6,60.3v24c0,8.8,7.2,16,16,16s16-7.2,16-16v-24
		c0-34.2-30.5-62.8-52.8-83.6c-1.5-1.4-2.9-2.7-4.3-4c-24.8-23.4-39-58.5-39-96.4v-0.7c0.1-34.1,13.5-66.1,37.6-90.1
		c24.1-23.9,56-37.1,90-37.1c0.1,0,0.2,0,0.4,0c71.8,0,128,56.2,128,128c0,38.7-13.5,72-39.1,96.4c-1.6,1.5-3.2,3-4.9,4.6
		c-22,20.8-52.1,49.3-52.1,83v24c0,8.8,7.2,16,16,16s16-7.2,16-16v-24c0-19.9,24.3-42.9,42.1-59.7c1.7-1.6,3.4-3.2,5-4.7
		c32-30.6,48.9-72,48.9-119.6C416,133,399.5,92.8,369.4,62.7z"/>
	<path d="M288,464h-64c-8.8,0-16,7.2-16,16s7.2,16,16,16h64c8.8,0,16-7.2,16-16S296.8,464,288,464z"/>
	<path d="M304,416h-96c-8.8,0-16,7.2-16,16s7.2,16,16,16h96c8.8,0,16-7.2,16-16S312.8,416,304,416z"/>
	<path d="M256,400c8.8,0,16-7.2,16-16V269.3c15.1-4.7,28.4-14.1,31.5-16.5c7.1-5.3,8.5-15.3,3.3-22.4c-5.3-7.1-15.3-8.6-22.4-3.3
		c-7,5.2-20.9,12.9-28.5,12.9c-7.5,0-21.5-7.7-28.5-12.8c-7.1-5.3-17.1-3.8-22.4,3.3c-5.3,7.1-3.8,17.1,3.3,22.4
		c3.2,2.4,16.4,11.8,31.5,16.5V384C240,392.8,247.2,400,256,400z"/>
</g>
</svg>
