<?xml version="1.0" encoding="utf-8"?>
<!-- Generator: Adobe Illustrator 26.0.1, SVG Export Plug-In . SVG Version: 6.00 Build 0)  -->
<svg version="1.1" id="圖層_1" xmlns="http://www.w3.org/2000/svg" xmlns:xlink="http://www.w3.org/1999/xlink" x="0px" y="0px"
	 viewBox="0 0 512 512" style="enable-background:new 0 0 512 512;" xml:space="preserve">
<g>
	<path d="M448,80c-0.1-26.4-21.6-47.9-48-48H112c-26.3,0.1-47.8,21.5-48,47.9c0,0,0,0,0,0.1v64v128v64v32v32
		c0,14.2,6.2,26.9,16,35.7V454c0,14.3,11.7,26,26,26h28c14.3,0,26-11.7,26-26v-6h192v6c0,14.3,11.7,26,26,26h28
		c14.3,0,26-11.7,26-26v-18.3c9.8-8.8,16-21.6,16-35.7v-32v-32v-64V144V80C448,80,448,80,448,80C448,80,448,80,448,80z M144,416h-32
		c-8.8,0-16-7.2-16-16v-32v-32c0-8.8,7.2-16,16-16h288c8.8,0,16,7.2,16,16v32v32c0,8.8-7.2,16-16,16h-32H144z M400,128
		c8.8,0,16,7.2,16,16v128c0,8.8-7.2,16-16,16H272V128H400z M240,288H112c-8.8,0-16-7.2-16-16V144c0-8.8,7.2-16,16-16h128V288z
		 M112,64h288c8.8,0,16,7.2,16,16c0,8.8-7.2,16-16,16H112c-8.8,0-16-7.2-16-16C96,71.2,103.2,64,112,64z"/>
	<circle cx="368" cy="368" r="32"/>
	<circle cx="144" cy="368" r="32"/>
</g>
</svg>
