<?xml version="1.0" encoding="utf-8"?>
<!-- Generator: Adobe Illustrator 26.0.0, SVG Export Plug-In . SVG Version: 6.00 Build 0)  -->
<svg version="1.1" id="圖層_1" xmlns="http://www.w3.org/2000/svg" xmlns:xlink="http://www.w3.org/1999/xlink" x="0px" y="0px"
	 viewBox="0 0 512 512" style="enable-background:new 0 0 512 512;" xml:space="preserve">
<g>
	<path d="M447.7,220.8c-0.2-1.1-0.6-2.1-1-3.1l-37.8-88.1c-8.7-20.4-29.9-33.5-54-33.5H157.1c-24.1,0-45.3,13.2-54,33.5l-37.8,88.1
		c-0.4,1-0.8,2-1,3.1c-0.2,1.1-0.3,2.1-0.3,3.2v144v32c0,8.8,7.2,16,16,16h32c8.8,0,16-7.2,16-16v-16h256v16c0,8.8,7.2,16,16,16h32
		c8.8,0,16-7.2,16-16v-32V224C448,222.9,447.9,221.9,447.7,220.8z M96,352V240h320v112H96z M132.5,142.2
		c3.6-8.5,13.5-14.2,24.6-14.2h197.8c11.1,0,21,5.7,24.6,14.2l28.2,65.8H104.3L132.5,142.2z"/>
	<circle cx="144" cy="288" r="32"/>
	<circle cx="368" cy="288" r="32"/>
</g>
</svg>
