<?xml version="1.0" encoding="utf-8"?>
<!-- Generator: Adobe Illustrator 26.0.1, SVG Export Plug-In . SVG Version: 6.00 Build 0)  -->
<svg version="1.1" id="icons" xmlns="http://www.w3.org/2000/svg" xmlns:xlink="http://www.w3.org/1999/xlink" x="0px" y="0px"
	 viewBox="0 0 512 512" style="enable-background:new 0 0 512 512;" xml:space="preserve">
<g>
	<path d="M149.4,360.1c23.7-3.5,41.6-13.2,53.2-29c14.7-19.8,19-48.1,13.2-86.7l0,0c-4.8-31.9-16-64.1-30.7-88.3
		c-23.4-38.7-47.7-45.3-64-44c-19,1.5-35.8,10.8-48.6,27c-21.7,27.4-29.4,70.9-21.7,122.5c5.3,35,14.2,58.9,28.1,75.3
		c13.8,16.2,32.2,24.4,54.8,24.4C138.8,361.3,144,360.9,149.4,360.1z M82.6,256.8c-6.3-42.1-0.8-77.8,15.1-97.8
		c7.2-9.1,16-14.2,26.1-15c0.3,0,0.7,0,1,0c9.8,0,22.1,10.6,33,28.7c12.4,20.4,22.2,49.1,26.4,76.5c4.4,29.3,2,50.4-7.3,62.9
		c-6.5,8.8-17,14.1-32.2,16.4C114.6,332.9,92.4,322.4,82.6,256.8z"/>
	<path d="M239.6,408c-1.6-17-7-28.5-16.6-35.3c-14.3-10.2-31.7-5.9-48.5-1.7c-4.5,1.1-9.1,2.2-13.6,3.1c-2.1,0.4-4.2,0.8-6.3,1.2
		c-19.6,3.6-38.2,7-48.5,22.2c-6.4,9.3-8.1,21-5.2,35.6c4,20.5,16.2,38.9,33.5,50.6c12.1,8.1,25.5,12.4,38.7,12.4
		c3.9,0,7.8-0.4,11.7-1.1c17.6-3.4,32.8-14.8,43-31.9C237.2,447.1,241.4,427.6,239.6,408L239.6,408z M178.6,463.5
		c-8.3,1.6-17.9-0.7-26.3-6.4c-10.3-7-17.6-18-20-30.2c-1.1-5.4-1-9.7,0.2-11.5c2.8-4.1,16.1-6.6,27.8-8.7c2.1-0.4,4.3-0.8,6.5-1.2
		c5.4-1,10.4-2.3,15.3-3.5c5.5-1.4,14.9-3.7,19.7-3.7c1.2,0,2.1,0.1,2.6,0.4c0,0,2.3,2.2,3.3,12.2
		C210.1,436.3,197,459.9,178.6,463.5z"/>
	<path d="M439.2,42.7c-12.8-16-29.6-25.2-48.5-26.6c-16.3-1.2-40.6,5.5-64,44.1c-14.6,24.1-25.8,56.3-30.6,88.2v0
		c-5.8,38.5-1.5,66.9,13.2,86.7c11.6,15.7,29.5,25.5,53.2,29c5.4,0.8,10.6,1.2,15.6,1.2c22.6,0,41-8.2,54.8-24.4
		c13.9-16.4,22.8-40.3,28.1-75.3C468.8,113.7,461.1,70.1,439.2,42.7z M429.4,160.8c-9.9,65.6-32,76.1-62.2,71.6
		c-15.2-2.2-25.7-7.6-32.2-16.4c-9.2-12.4-11.6-33.6-7.3-62.9c4.1-27.5,14-56.1,26.3-76.4C365.4,58,378.2,47.3,388.4,48
		c9.9,0.7,18.6,5.7,25.8,14.7C430.2,82.7,435.8,118.5,429.4,160.8z"/>
	<path d="M357.5,279.2c-2.1-0.4-4.2-0.8-6.3-1.2c-4.5-0.9-9.1-2-13.6-3.1c-16.8-4.1-34.2-8.4-48.5,1.7c-9.6,6.8-15,18.4-16.6,35.3v0
		c-1.8,19.6,2.4,39.1,11.8,55c10.2,17.1,25.5,28.4,43,31.9c3.8,0.8,7.7,1.1,11.7,1.1c13.2,0,26.6-4.2,38.7-12.4
		c17.3-11.7,29.5-30.1,33.5-50.6c2.8-14.7,1.1-26.3-5.2-35.6C395.6,286.3,377.1,282.9,357.5,279.2z M379.7,330.9
		c-2.4,12.2-9.7,23.2-20,30.2c-8.4,5.7-18,8-26.3,6.4c-18.5-3.6-31.5-27.2-29.1-52.5v0c0.9-10,3.3-12.2,3.3-12.2
		c2.7-1.6,15.4,1.5,22.3,3.2c4.9,1.2,9.9,2.4,15.3,3.5c2.2,0.4,4.4,0.8,6.5,1.2c11.7,2.2,25,4.6,27.8,8.7
		C380.7,321.2,380.8,325.5,379.7,330.9z"/>
</g>
</svg>
