<?xml version="1.0" encoding="utf-8"?>
<!-- Generator: Adobe Illustrator 26.0.1, SVG Export Plug-In . SVG Version: 6.00 Build 0)  -->
<svg version="1.1" id="圖層_1" xmlns="http://www.w3.org/2000/svg" xmlns:xlink="http://www.w3.org/1999/xlink" x="0px" y="0px"
	 viewBox="0 0 512 512" style="enable-background:new 0 0 512 512;" xml:space="preserve">
<g>
	<path d="M336,224c26.5,0,48-21.5,48-48s-21.5-48-48-48s-48,21.5-48,48S309.5,224,336,224z M336,160c8.8,0,16,7.2,16,16
		s-7.2,16-16,16s-16-7.2-16-16S327.2,160,336,160z"/>
	<path d="M480,368.1V128c0-35.3-28.7-64-64-64H96c-35.3,0-64,28.7-64,64v256c0,35.3,28.7,64,64,64h320c35.3,0,64-28.7,64-64V368.1
		C480,368.1,480,368.1,480,368.1z M96,96h320c17.6,0,32,14.4,32,32v205.8l-47.3-39.5c-19.2-16-47-14.7-64.7,3l-23.9,23.9L224.7,234
		c-17.9-17.9-46.8-18.8-65.8-1.9L64,316.4V128C64,110.4,78.4,96,96,96z M64,384v-24.8L180.1,256c6.3-5.6,16-5.3,21.9,0.7l87.4,87.3
		L217.4,416H96C78.4,416,64,401.6,64,384z M416,416H262.6l96-96c5.9-5.9,15.2-6.3,21.5-1l67.8,56.5v8.5C448,401.6,433.6,416,416,416
		z"/>
</g>
</svg>
