<?xml version="1.0" encoding="utf-8"?>
<!-- Generator: Adobe Illustrator 26.0.1, SVG Export Plug-In . SVG Version: 6.00 Build 0)  -->
<svg version="1.1" id="圖層_1" xmlns="http://www.w3.org/2000/svg" xmlns:xlink="http://www.w3.org/1999/xlink" x="0px" y="0px"
	 viewBox="0 0 512 512" style="enable-background:new 0 0 512 512;" xml:space="preserve">
<path d="M470.6,51.9c-6-6-14.1-9.4-22.6-9.4c0,0,0,0,0,0c-5.2,0-10.4,1.3-15,3.7c-0.4,0.2-0.8,0.5-1.2,0.7l-97.3,63.4
	c-4.2,2-9.2,2.1-13.4,0.2L207.4,37.9c-0.5-0.3-1-0.6-1.5-0.8c-6.8-3.4-14.3-5.1-21.7-5c-0.1,0-0.1,0-0.2,0c0,0-0.1,0-0.1,0
	c-7.6,0.1-15.1,1.9-22,5.6c-0.5,0.3-1,0.5-1.4,0.9L48.2,113.8c-10,5.7-16.2,16.3-16.2,27.8v295.8c0,8.5,3.3,16.6,9.4,22.6
	c6,6,14.1,9.4,22.6,9.4c0,0,0,0,0,0c5.2,0,10.4-1.3,15-3.7c0.4-0.2,0.8-0.5,1.2-0.7l97.1-63.3c4.3-2.1,9.3-2.1,13.6-0.2l111,72.5
	c0.5,0.3,1,0.6,1.5,0.9c6.8,3.5,14.3,5.2,21.8,5.2c0.7,0,1.3,0,2-0.1c0.3,0,0.6,0,0.9,0c1.3,0,2.5-0.2,3.7-0.4
	c5.4-0.7,10.7-2.4,15.6-4.9c0.5-0.3,1-0.5,1.4-0.8l114.9-75.6c10.1-5.7,16.4-16.3,16.4-27.9V74.6C480,66,476.7,58,470.6,51.9z
	 M160.6,374.4l-96.6,63V141.6c0.5-0.3,1-0.5,1.4-0.9L168,72v299c-2.1,0.8-4.2,1.7-6.2,2.7C161.4,373.9,161,374.1,160.6,374.4z
	 M207.6,374.1c-0.5-0.3-1-0.6-1.5-0.9c-2-1-4-1.8-6.1-2.6V71.2l104.6,67c0.5,0.3,1,0.6,1.5,0.8c1.9,1,3.9,1.8,5.9,2.4v300.9
	L207.6,374.1z M446.6,371.1L344,438.6V141.1c2-0.7,4-1.6,6-2.6c0.4-0.2,0.8-0.5,1.3-0.7l96.8-63l0,295.6
	C447.5,370.5,447,370.8,446.6,371.1z"/>
</svg>
