<?xml version="1.0" encoding="utf-8"?>
<!-- Generator: Adobe Illustrator 26.0.0, SVG Export Plug-In . SVG Version: 6.00 Build 0)  -->
<svg version="1.1" id="圖層_1" xmlns="http://www.w3.org/2000/svg" xmlns:xlink="http://www.w3.org/1999/xlink" x="0px" y="0px"
	 viewBox="0 0 512 512" style="enable-background:new 0 0 512 512;" xml:space="preserve">
<path d="M336,96c0-44.1-35.9-80-80-80s-80,35.9-80,80c0,38.6,27.5,71,64,78.4v283.2c0,4.3,0.8,8.5,2.5,12.4l10.1,24
	c1,1.9,3.4,2.6,5.3,1.6c0.7-0.4,1.2-0.9,1.6-1.6l10.1-24c1.6-3.9,2.5-8.1,2.5-12.4V174.4C308.5,167,336,134.6,336,96z M256,144
	c-26.5,0-48-21.5-48-48s21.5-48,48-48c4.9,0,9.7,0.7,14.1,2.1C261.8,53.9,256,62.3,256,72c0,13.3,10.7,24,24,24
	c9.7,0,18.1-5.8,21.9-14.1c1.4,4.5,2.1,9.2,2.1,14.1C304,122.5,282.5,144,256,144z"/>
</svg>
