<?xml version="1.0" encoding="utf-8"?>
<!-- Generator: Adobe Illustrator 26.0.0, SVG Export Plug-In . SVG Version: 6.00 Build 0)  -->
<svg version="1.1" id="圖層_1" xmlns="http://www.w3.org/2000/svg" xmlns:xlink="http://www.w3.org/1999/xlink" x="0px" y="0px"
	 viewBox="0 0 512 512" style="enable-background:new 0 0 512 512;" xml:space="preserve">
<g>
	<path d="M68.8,36.4c-6.2-6.2-16.3-6.3-22.6-0.1C31.1,51.4,23,72.6,23,97.6c-0.1,41.4,21.7,88.9,56.8,124.1l85.4,85.4
		c16.1,16.1,39.9,22.6,61.9,16.8c5.3-1.4,10.9,0,14.9,3.7l11.4,10.5c2.9,3,4.6,7.1,4.6,11.2v5.5c0,12.7,4.9,24.6,13.8,33.6l90,91.5
		c0,0,0.1,0.1,0.1,0.1c10.4,10.4,24,15.6,37.7,15.6c13.6,0,27.3-5.2,37.7-15.6c20.8-20.8,20.8-54.6,0-75.3L68.8,36.4z M414.6,457.6
		c-8.3,8.3-21.8,8.3-30.1,0l-90-91.5c-3-3-4.6-7-4.6-11.2v-5.5c0-12.8-5.2-25.2-14.3-34.2c-0.1-0.1-0.3-0.2-0.4-0.4l-11.6-10.7
		c-12.1-11.1-28.8-15.3-44.7-11.2c-11.1,2.9-23.1-0.3-31.2-8.5L102.4,199C73.5,170.2,54.9,130.4,55,97.7c0-7.3,1-16.5,4.7-25.1
		l354.9,354.9C422.9,435.8,422.9,449.3,414.6,457.6z"/>
	<path d="M288,208c4.1,0,8.2-1.6,11.3-4.7l11.3-11.3c6.1-6,9.4-14.1,9.4-22.6v-14.9c0-12.8,5-24.9,14.1-33.9l77.2-77.2
		c6.2-6.2,6.2-16.4,0-22.6c-6.2-6.2-16.4-6.2-22.6,0l-77.2,77.2C296.3,113,288,133.1,288,154.5l0,14.9l-11.3,11.3
		c-6.2,6.2-6.2,16.4,0,22.6C279.8,206.4,283.9,208,288,208z"/>
	<path d="M491.3,100.7c-6.2-6.2-16.4-6.2-22.6,0l-77.3,77.3c-9.1,9.1-21.1,14.1-33.9,14.1h-14.9c0,0,0,0,0,0
		c-8.6,0-16.6,3.3-22.6,9.4l-11.3,11.3c-6.2,6.2-6.2,16.4,0,22.6c3.1,3.1,7.2,4.7,11.3,4.7s8.2-1.6,11.3-4.7l11.3-11.3h14.9
		c21.4,0,41.5-8.3,56.6-23.4l77.2-77.2C497.6,117.1,497.6,106.9,491.3,100.7z"/>
	<path d="M348.7,163.3c3.1,3.1,7.2,4.7,11.3,4.7s8.2-1.6,11.3-4.7l80-80c6.2-6.2,6.2-16.4,0-22.6c-6.2-6.2-16.4-6.2-22.6,0l-80,80
		C342.4,146.9,342.4,157.1,348.7,163.3z"/>
	<path d="M188.7,356.7L89,457c-9.4,9.4-24.6,9.4-33.9,0c-9.4-9.4-9.4-24.6,0-33.9l84.3-83.7c6.3-6.2,6.3-16.4,0.1-22.6
		c-6.2-6.3-16.4-6.3-22.6-0.1l-84.3,83.8c-21.8,21.8-21.8,57.4,0,79.2C43.3,490.5,57.7,496,72,496c14.3,0,28.7-5.5,39.6-16.4
		l99.7-100.3c6.2-6.3,6.2-16.4-0.1-22.6C205,350.4,194.9,350.5,188.7,356.7z"/>
</g>
</svg>
