<?xml version="1.0" encoding="utf-8"?>
<!-- Generator: Adobe Illustrator 26.0.0, SVG Export Plug-In . SVG Version: 6.00 Build 0)  -->
<svg version="1.1" id="圖層_1" xmlns="http://www.w3.org/2000/svg" xmlns:xlink="http://www.w3.org/1999/xlink" x="0px" y="0px"
	 viewBox="0 0 512 512" style="enable-background:new 0 0 512 512;" xml:space="preserve">
<path d="M459.3,436.7L354.2,331.6c24.9-30,40-68.5,40-110.5c0-95.4-77.7-173.1-173.1-173.1h0C125.6,48,48,125.6,48,221.1
	s77.6,173.1,173.1,173.1c42,0,80.5-15,110.5-40l105.1,105.1c3.1,3.1,7.2,4.7,11.3,4.7s8.2-1.6,11.3-4.7
	C465.6,453.1,465.6,442.9,459.3,436.7z M221.1,362.2C143.3,362.2,80,298.9,80,221.1C80,143.3,143.3,80,221.1,80
	c77.8,0,141.1,63.3,141.1,141.1C362.2,298.9,298.9,362.2,221.1,362.2z"/>
</svg>
