<?xml version="1.0" encoding="utf-8"?>
<!-- Generator: Adobe Illustrator 26.0.1, SVG Export Plug-In . SVG Version: 6.00 Build 0)  -->
<svg version="1.1" id="icons" xmlns="http://www.w3.org/2000/svg" xmlns:xlink="http://www.w3.org/1999/xlink" x="0px" y="0px"
	 viewBox="0 0 512 512" style="enable-background:new 0 0 512 512;" xml:space="preserve">
<style type="text/css">
	.st0{fill:#231815;}
</style>
<g>
	<path class="st0" d="M208,512c-3.5,0-6.9-0.7-10.1-2.2c-6.1-2.7-10.8-7.6-13.2-13.9l-42.4-110.2L32,343.3
		c-6.6-2.5-11.8-7.8-14.4-14.4c-2.4-6.2-2.2-13,0.5-19.1c2.7-6.1,7.6-10.8,13.9-13.2l110.2-42.4L184.7,144
		c2.5-6.6,7.8-11.8,14.4-14.4c6.2-2.4,13-2.2,19.1,0.5c6.1,2.7,10.8,7.6,13.2,13.9l42.4,110.2L384,296.7c6.6,2.5,11.8,7.8,14.4,14.4
		c2.4,6.2,2.2,13-0.5,19.1c-2.7,6.1-7.6,10.8-13.9,13.2l-110.2,42.4L231.3,496c-2.5,6.6-7.8,11.8-14.4,14.4
		C214.1,511.5,211,512,208,512z M60.5,320l96.2,37c6.6,2.5,11.8,7.8,14.4,14.4l37,96.2l37-96.2c2.5-6.6,7.8-11.8,14.4-14.4l96.2-37
		l-96.2-37c-6.6-2.5-11.8-7.8-14.4-14.4l-37-96.2l-37,96.2c-2.5,6.6-7.8,11.8-14.4,14.4L60.5,320z M274.9,257.2L274.9,257.2
		L274.9,257.2z"/>
</g>
<g>
	<path class="st0" d="M88,176c-6.6,0-12.6-4.1-14.9-10.3l-17.4-45.4l-45.4-17.4C4.1,100.6,0,94.6,0,88s4.1-12.6,10.3-14.9l45.4-17.4
		l17.4-45.4C75.4,4.1,81.4,0,88,0s12.6,4.1,14.9,10.3l17.4,45.4l45.4,17.4c6.2,2.4,10.3,8.3,10.3,14.9s-4.1,12.6-10.3,14.9
		l-45.4,17.4l-17.4,45.4C100.6,171.9,94.6,176,88,176z M60.6,88l13.2,5.1c4.2,1.6,7.6,5,9.2,9.2l5.1,13.2l5.1-13.2
		c1.6-4.2,5-7.6,9.2-9.2l13.2-5.1l-13.2-5.1c-4.2-1.6-7.6-5-9.2-9.2L88,60.6l-5.1,13.2c-1.6,4.2-5,7.6-9.2,9.2L60.6,88z"/>
</g>
<g>
	<path class="st0" d="M400,256c-6.6,0-12.6-4.1-14.9-10.3l-24.1-62.7l-62.7-24.1c-6.2-2.4-10.3-8.3-10.3-14.9s4.1-12.6,10.3-14.9
		l62.7-24.1l24.1-62.7c2.4-6.2,8.3-10.3,14.9-10.3s12.6,4.1,14.9,10.3l24.1,62.7l62.7,24.1c6.2,2.4,10.3,8.3,10.3,14.9
		s-4.1,12.6-10.3,14.9l-62.7,24.1l-24.1,62.7C412.6,251.9,406.6,256,400,256z M348.6,144l30.5,11.7c4.2,1.6,7.6,5,9.2,9.2l11.7,30.5
		l11.7-30.5c1.6-4.2,5-7.6,9.2-9.2l30.5-11.7l-30.5-11.7c-4.2-1.6-7.6-5-9.2-9.2L400,92.6l-11.7,30.5c-1.6,4.2-5,7.6-9.2,9.2
		L348.6,144z"/>
</g>
</svg>
