<?xml version="1.0" encoding="utf-8"?>
<!-- Generator: Adobe Illustrator 26.0.1, SVG Export Plug-In . SVG Version: 6.00 Build 0)  -->
<svg version="1.1" id="圖層_1" xmlns="http://www.w3.org/2000/svg" xmlns:xlink="http://www.w3.org/1999/xlink" x="0px" y="0px"
	 viewBox="0 0 512 512" style="enable-background:new 0 0 512 512;" xml:space="preserve">
<g>
	<path d="M490.2,181.4l-44.1-44.1c-7.3-7.3-19.1-7.8-27.1-1.1c-12.1,10.4-30.4,9.7-41.7-1.5c-11.3-11.3-11.9-29.6-1.5-41.7
		c6.7-7.9,6.2-19.7-1.1-27l-44.1-44.2c-7.8-7.7-20.4-7.7-28.1,0l-70.3,70.3c-4.3,4.3-7.6,9.7-9.6,15.5c-0.8,2.3-2.6,4.1-4.8,4.8
		c-5.8,1.9-11.2,5.2-15.5,9.6L21.8,302.5c-7.8,7.8-7.7,20.4,0,28.1l44.1,44.1c7.3,7.3,19.1,7.8,27,1.1c6.2-5.3,14.1-7.9,22.3-7.3
		c8.2,0.6,15.6,4.4,21,10.6c10,11.6,10,28.4,0,40c-6.7,7.9-6.2,19.7,1.1,27l44.1,44.1c3.9,3.9,9,5.8,14.1,5.8
		c5.1,0,10.2-1.9,14.1-5.8l180.4-180.4c4.3-4.3,7.6-9.7,9.6-15.5c0.8-2.3,2.6-4.1,4.8-4.8c5.8-1.9,11.2-5.2,15.5-9.6l70.3-70.3
		C497.9,201.7,497.9,189.1,490.2,181.4z M397.2,257.2c-0.8,0.8-1.9,1.5-3,1.8c-0.6,0.2-1.2,0.4-1.8,0.7l-9.5-9.5
		c-6.2-6.2-16.4-6.2-22.6,0c-6.2,6.2-6.2,16.4,0,22.6l9.6,9.6c-0.2,0.6-0.5,1.2-0.7,1.8c-0.4,1.1-1,2.2-1.8,3L195.5,459l-28.4-28.4
		c5.6-9.5,8.5-20.4,8.5-31.6c0-15-5.4-29.5-15.1-40.8c-10.9-12.7-26.1-20.4-42.8-21.7c-12.9-1-25.4,2-36.3,8.3L53,316.5l171.8-171.8
		c0.8-0.8,1.9-1.5,3-1.9c0.6-0.2,1.2-0.4,1.8-0.7l9.5,9.5c3.1,3.1,7.2,4.7,11.3,4.7s8.2-1.6,11.3-4.7c6.2-6.2,6.2-16.4,0-22.6
		l-9.6-9.6c0.2-0.6,0.5-1.2,0.7-1.8c0.4-1.1,1-2.1,1.8-3L316.5,53l28.4,28.4c-6,10.2-8.9,21.9-8.5,34c0.6,15.8,7.1,30.7,18.3,41.9
		l0,0c11.2,11.2,26.1,17.7,42,18.2c12,0.4,23.7-2.5,33.9-8.5l28.3,28.3L397.2,257.2z"/>
	<path d="M294.8,162.1c-6.3-6.2-16.4-6.2-22.6,0c-6.2,6.3-6.2,16.4,0,22.6l11,11c3.1,3.1,7.2,4.7,11.3,4.7c4.1,0,8.2-1.6,11.3-4.7
		c6.2-6.3,6.2-16.4,0-22.6L294.8,162.1z"/>
	<path d="M338.9,206.2c-6.2-6.3-16.4-6.3-22.6,0c-6.3,6.2-6.3,16.4,0,22.6l11,11c3.1,3.1,7.2,4.7,11.3,4.7c4.1,0,8.2-1.6,11.3-4.7
		c6.3-6.2,6.3-16.4,0-22.6L338.9,206.2z"/>
</g>
</svg>
